<svg width="128" height="40" viewBox="0 0 128 40" fill="none" xmlns="http://www.w3.org/2000/svg">
<g clip-path="url(#clip0_284_813)">
<path d="M51.5514 29.6481H45.2244V9.02002H51.5514C54.079 9.02002 55.5715 10.5592 55.5715 12.9359V25.7601C55.5715 28.1368 54.051 29.6481 51.5514 29.6481ZM52.4461 13.3945C52.4461 12.2859 51.74 11.6678 50.6246 11.6678H48.3177V27.0043H50.5444C51.7922 27.0043 52.4461 26.3304 52.4461 25.2497V13.3984V13.3945Z" fill="#144B52"/>
<path d="M65.1845 22.0596V29.6441H62.0591V22.0596L57.9587 9.12769V9.02002H61.1644L63.6358 17.9842L66.1073 9.02002H69.2849V9.12769L65.1845 22.0596Z" fill="#144B52"/>
<path d="M80.0413 29.6481L75.0704 16.6643C75.0704 16.6643 75.2589 17.6094 75.2589 18.1477V29.6481H72.2458V9.02002H74.962L79.933 21.7366C79.933 21.7366 79.7444 20.7915 79.7444 20.2532V9.02002H82.7575V29.6441H80.0413V29.6481Z" fill="#144B52"/>
<path d="M94.0595 29.6482L93.4336 25.7323H89.5499L88.924 29.6482H85.8547V29.5923L89.8748 8.99219H93.1327L97.1247 29.5923V29.6482H94.0554H94.0595ZM91.4797 13.7734L89.9591 23.0885H93.0003L91.4797 13.7734Z" fill="#144B52"/>
<path d="M109.787 29.6481V19.4716C109.787 18.69 109.976 17.2306 109.976 17.2306L107.287 27.7579H105.711L103.023 17.2306C103.023 17.2306 103.211 18.69 103.211 19.4716V29.6481H100.222V9.02002H103.155L106.413 20.4127C106.469 20.6001 106.493 21.3578 106.493 21.3578C106.493 21.3578 106.521 20.6001 106.573 20.4127L109.831 9.02002H112.764V29.6441H109.775L109.787 29.6481Z" fill="#144B52"/>
<path d="M125.185 29.6481H118.449C117.253 29.6481 116.604 28.9742 116.604 27.7579V10.9102C116.604 9.69393 117.253 9.02002 118.449 9.02002H125.185C126.381 9.02002 127.059 9.69393 127.059 10.9102V27.7579C127.059 28.9742 126.381 29.6481 125.185 29.6481ZM123.962 11.6678H119.697V27.0043H123.962V11.6638V11.6678Z" fill="#144B52"/>
<path d="M12.9149 7.92743H19.7435L25.874 20.0179L34.3595 20.006C34.3595 20.006 27.8158 7.14585 25.2441 2.04965C24.6101 0.79354 23.3183 0 21.902 0H0L9.35619 20.0179L18.239 20.006L12.9149 7.92743Z" fill="#EE2F24"/>
<path d="M12.9149 32.0764H19.7435L25.874 19.9859L34.3595 19.9979C34.3595 19.9979 28.6784 31.1633 25.8218 36.8138C24.8308 38.7717 22.8167 40.0079 20.6101 40.0079H0L9.35619 19.9819L18.239 19.9939L12.9149 32.0725V32.0764Z" fill="#B72425"/>
</g>
<defs>
<clipPath id="clip0_284_813">
<rect width="127.059" height="40" fill="white"/>
</clipPath>
</defs>
</svg>
